<svg xmlns="http://www.w3.org/2000/svg" viewBox="0 0 20.95 20.93"><title>btn-tienda-info</title><g id="Capa_2" data-name="Capa 2"><g id="home_Imagen" data-name="home Imagen"><path d="M10.48,0h0a10.46,10.46,0,1,0,0,20.93h0A10.46,10.46,0,1,0,10.48,0Zm8.69,10.46a8.71,8.71,0,0,1-8.69,8.69h0a8.76,8.76,0,0,1-6.15-2.54,8.62,8.62,0,0,1-2.55-6.14,8.72,8.72,0,0,1,8.7-8.69h0a8.71,8.71,0,0,1,8.69,8.69Z"/><path d="M11.92,13.26a.83.83,0,0,0-.31.19,2.58,2.58,0,0,0-.26.3l-.16.24-.16.24-.19.23c0-.32.11-.66.19-1,.17-.78.39-1.56.63-2.35l.08-.26c.24-.79.48-1.61.67-2.43,0-.14.06-.28.1-.43l.09-.73L12,7.29l-.16,0-.25.07a8.82,8.82,0,0,1-1.26.18l-.18,0a10.65,10.65,0,0,0-1.22.16,2.72,2.72,0,0,0-.62.19L8.07,8v.57L8.13,9h.51A1.09,1.09,0,0,1,9,9.1a.13.13,0,0,1,.1.13,1.11,1.11,0,0,1,0,.38l0,.13c-.08.29-.15.59-.24.88l-.35,1.1-.29.92a10.89,10.89,0,0,0-.48,2,2.36,2.36,0,0,0,.05.86,1.66,1.66,0,0,0,1.59,1.25h.09a2.35,2.35,0,0,0,1.21-.35,4.08,4.08,0,0,0,.79-.62,10.94,10.94,0,0,0,1-1.21,2.51,2.51,0,0,0,.21-.35,1,1,0,0,0,.1-.31.62.62,0,0,0-.83-.68Z"/><path d="M11.62,3.53h0a1.66,1.66,0,0,0-1.18,2.84,1.64,1.64,0,0,0,1.16.48h0a1.66,1.66,0,0,0,0-3.32Z"/></g></g></svg>