<svg xmlns="http://www.w3.org/2000/svg" viewBox="0 0 23.92 20.93"><title>btn-tienda-fav</title><g id="Capa_2" data-name="Capa 2"><g id="home_Imagen" data-name="home Imagen"><path d="M21.21,1.55a7.12,7.12,0,0,0-8.89,0L12,1.88a7,7,0,0,0-1.46-1A7.11,7.11,0,0,0,7.5,0,7,7,0,0,0,5.61.18a7.06,7.06,0,0,0-4,2.51A7,7,0,0,0,0,6.74,7,7,0,0,0,.14,8.55a7.08,7.08,0,0,0,2,3.74l1.36,1.3,7.1,6.81a1.86,1.86,0,0,0,1.26.52H12a1.9,1.9,0,0,0,1.35-.55l1-.93,2-1.93,5.14-4.94a10.79,10.79,0,0,0,.85-.89A7,7,0,0,0,23.9,7.76a7.12,7.12,0,0,0-2.69-6.21ZM12,4.74l.35-.47a5.27,5.27,0,0,1,5-2.36,5.27,5.27,0,0,1,4.37,3.53,5.28,5.28,0,0,1-1.29,5.46c-1,1-2,2-3.07,3l-.81.77-2,1.88L13.3,17.8,12,19a.09.09,0,0,1-.14,0L10,17.22,3.51,11A5.11,5.11,0,0,1,2,8.22,5.18,5.18,0,0,1,3.23,3.63,5.17,5.17,0,0,1,7.7,1.92a5.17,5.17,0,0,1,3.84,2.33l.13.17.29-.3-.29.3Z"/></g></g></svg>