<svg xmlns="http://www.w3.org/2000/svg" viewBox="0 0 19.81 20.93"><title>btn-tienda-bolsa</title><g id="Capa_2" data-name="Capa 2"><g id="home_Imagen" data-name="home Imagen"><path d="M18.82,4.75A.87.87,0,0,0,18.19,4a1.15,1.15,0,0,0-.36,0H14.18A4.2,4.2,0,0,0,13,1.33,4.18,4.18,0,0,0,10.06,0,4.1,4.1,0,0,0,7.2,1a4.22,4.22,0,0,0-1.57,3H1.84A.9.9,0,0,0,1,4.57a1.35,1.35,0,0,0,0,.28l-1,15c0,.06,0,.13,0,.19a.9.9,0,0,0,.72.9,1.36,1.36,0,0,0,.3,0H18.94a.92.92,0,0,0,.67-.33,1,1,0,0,0,.19-.79L18.87,5.55C18.86,5.29,18.84,5,18.82,4.75ZM1.88,19.1,2.74,5.74H5.61c0,.16,0,.35,0,.5a1.41,1.41,0,0,0-.4.9,1.24,1.24,0,0,0,.36.92,1.32,1.32,0,0,0,1.89,0,1.29,1.29,0,0,0,0-1.84V5.74h4.94v.49a1.25,1.25,0,0,0-.4.92,1.31,1.31,0,0,0,1.34,1.31A1.31,1.31,0,0,0,14.59,7a1.26,1.26,0,0,0-.39-.78V5.74c.7,0,2.18,0,2.86,0l.86,13.36C15.57,19.11,4.15,19.12,1.88,19.1ZM7.46,3.91a2.42,2.42,0,0,1,1-1.62,2.37,2.37,0,0,1,2.69-.12,2.32,2.32,0,0,1,1.19,1.74Zm11.46,16.6h0Zm.47-.57Z"/></g></g></svg>