<svg xmlns="http://www.w3.org/2000/svg" viewBox="0 0 23.31 21.07"><title>Recurso 1</title><g id="Capa_2" data-name="Capa 2"><g id="home_Imagen" data-name="home Imagen"><path d="M22.84,8.19,12.32.22A1.11,1.11,0,0,0,12,.05a.93.93,0,0,0-.9.17L1,7.83.79,8l-.44.34a.89.89,0,0,0-.33.9A.9.9,0,0,0,.7,9.9a.91.91,0,0,0,.81-.17l.65-.49V20.07a1.19,1.19,0,0,0,0,.24,1,1,0,0,0,1,.75H9.61a1,1,0,0,0,.72-.3.94.94,0,0,0,.25-.71c0-.14,0-.29,0-.43V15h2.2v4.32c0,.24,0,.48,0,.73a.77.77,0,0,0,.31.63l.08.07a1,1,0,0,0,.79.31h6.4a.93.93,0,0,0,.86-.9V9.3l.56.42.13.09A.93.93,0,0,0,23,8.32ZM14.64,14a.92.92,0,0,0-.85-.86H9.73a1.22,1.22,0,0,0-.33,0,.91.91,0,0,0-.65.83V19.2H4V7.85l7.7-5.76L19.38,7.9s0,.08,0,.13V19.2H14.64v-5C14.64,14.12,14.64,14.07,14.64,14Z"/></g></g></svg>