<svg xmlns="http://www.w3.org/2000/svg" viewBox="0 0 20.92 20.93"><title>btn-tienda-perfil</title><g id="Capa_2" data-name="Capa 2"><g id="home_Imagen" data-name="home Imagen"><path d="M10.47,0h0a10.46,10.46,0,0,0-7.4,17.86,10.39,10.39,0,0,0,7.4,3.07h0A10.49,10.49,0,0,0,20.92,10.46h0A10.49,10.49,0,0,0,10.47,0ZM4.35,17.2h0ZM7.41,9.26a5.77,5.77,0,0,1,0-1.12,3.91,3.91,0,0,1,.23-1,2.72,2.72,0,0,1,2-1.78A4.19,4.19,0,0,1,11,5.24a2.71,2.71,0,0,1,2.25,1.53,3.68,3.68,0,0,1,.44,1.49,4.26,4.26,0,0,1-.07,1.28s0,.08,0,.11v.12l.07.21.11.08a.57.57,0,0,0,.16.08,2.32,2.32,0,0,1-.11.73.91.91,0,0,1-.5.6l-.17.16-.12.42a4.39,4.39,0,0,1-.79,1.54,2.21,2.21,0,0,1-1.18.8,2,2,0,0,1-2-.55,3.55,3.55,0,0,1-.83-1.29c-.07-.19-.13-.38-.19-.57L8,11.77v-.23l-.2-.08-.41-.34a1.19,1.19,0,0,1-.09-.21,2.78,2.78,0,0,1-.12-.78l.12-.06.22-.14Zm-1.72,7.8,1.06-.26.45-.11A4.09,4.09,0,0,0,8,16.44a2.64,2.64,0,0,0,.42-.25,1.31,1.31,0,0,0,.45-.57A2.68,2.68,0,0,0,9.94,16a3.54,3.54,0,0,0,2.18-.34l.08,0a1.45,1.45,0,0,0,.49.58,2.84,2.84,0,0,0,.95.42l.89.22.56.14a7.65,7.65,0,0,1,.8.23,8.42,8.42,0,0,1-2.48,1.41,8.61,8.61,0,0,1-8.33-1.36A4.3,4.3,0,0,1,5.69,17.07Zm8.59-2a3.06,3.06,0,0,1-.43-.16l-.06,0v-.08c0-.18,0-.37,0-.54l.35-.56a3.74,3.74,0,0,0,.46-1.09,4,4,0,0,0,.75-1.1A3.13,3.13,0,0,0,15.63,10a1.64,1.64,0,0,0-.11-.43,2.19,2.19,0,0,0-.1-.23l0-.08a.63.63,0,0,1,0-.33V8.78a3.51,3.51,0,0,0,0-.56,5,5,0,0,0-1.27-3.12,4.78,4.78,0,0,0-2.46-1.41,3,3,0,0,0-.79-.09h-.58a3.36,3.36,0,0,0-1.2.19A4.81,4.81,0,0,0,5.81,7.46a4.67,4.67,0,0,0-.06,1.26,1.1,1.1,0,0,1-.1.64,2,2,0,0,0-.16,1.19,3.55,3.55,0,0,0,.32,1.11A2.42,2.42,0,0,0,6,12l.06.09a1.14,1.14,0,0,0,.14.18,2.27,2.27,0,0,1,.5.86c.05.16.12.31.18.47a2.54,2.54,0,0,0,.43.74v.6l-.2.08A8.41,8.41,0,0,1,6,15.31l-.18,0c-.33.07-.66.15-1,.24a3.25,3.25,0,0,0-1,.45A8.69,8.69,0,0,1,10,1.78h.42a8.58,8.58,0,0,1,6,2.41A8.69,8.69,0,0,1,17.15,16a4.73,4.73,0,0,0-1.47-.55l-.33-.08C15,15.27,14.63,15.19,14.27,15.09Z"/></g></g></svg>